<svg height="378pt" preserveAspectRatio="xMidYMid meet" viewBox="0 0 378 378" width="378pt" xmlns="http://www.w3.org/2000/svg"><path d="m1705 3744c-144-20-195-29-293-55-646-166-1165-689-1326-1337-44-177-51-238-51-457 0-225 7-284 56-473 166-651 692-1167 1354-1331 44-11 103-23 130-27 28-3 59-9 70-11 53-13 396-11 490 2 540 79 997 367 1301 821 212 318 314 682 301 1079-9 273-58 481-170 725-118 259-330 518-570 699-228 171-463 276-749 337-102 21-156 26-318 29-107 2-208 1-225-1z" transform="matrix(.1 0 0 -.1 0 378)"/></svg>